0
SECTION
2
ENTITIES
0
LINE
8
0
10
11.9836
20
-0.6280
11
11.9979
21
-0.2269
0
LINE
8
0
10
11.9979
20
-0.2269
11
11.9987
21
0.1745
0
LINE
8
0
10
11.9987
20
0.1745
11
11.9862
21
0.5757
0
LINE
8
0
10
11.9862
20
0.5757
11
11.9602
21
0.9763
0
LINE
8
0
10
11.9602
20
0.9763
11
11.9209
21
1.3758
0
LINE
8
0
10
11.9209
20
1.3758
11
11.8682
21
1.7737
0
LINE
8
0
10
11.8682
20
1.7737
11
11.8022
21
2.1697
0
LINE
8
0
10
11.8022
20
2.1697
11
11.7231
21
2.5632
0
LINE
8
0
10
11.7231
20
2.5632
11
11.6308
21
2.9538
0
LINE
8
0
10
11.6308
20
2.9538
11
11.5255
21
3.3412
0
LINE
8
0
10
11.5255
20
3.3412
11
11.4073
21
3.7248
0
LINE
8
0
10
11.4073
20
3.7248
11
11.2763
21
4.1042
0
LINE
8
0
10
11.2763
20
4.1042
11
11.2640
21
4.1741
0
LINE
8
0
10
11.2640
20
4.1741
11
11.2512
21
4.2440
0
LINE
8
0
10
11.2512
20
4.2440
11
11.2380
21
4.3139
0
LINE
8
0
10
11.2380
20
4.3139
11
11.2243
21
4.3837
0
LINE
8
0
10
11.2243
20
4.3837
11
11.2103
21
4.4535
0
LINE
8
0
10
11.2103
20
4.4535
11
11.1957
21
4.5234
0
LINE
8
0
10
11.1957
20
4.5234
11
11.1808
21
4.5932
0
LINE
8
0
10
11.1808
20
4.5932
11
11.1654
21
4.6630
0
LINE
8
0
10
11.1654
20
4.6630
11
11.1496
21
4.7327
0
LINE
8
0
10
11.1496
20
4.7327
11
11.1334
21
4.8025
0
LINE
8
0
10
11.1334
20
4.8025
11
11.1167
21
4.8722
0
LINE
8
0
10
11.1167
20
4.8722
11
11.0996
21
4.9419
0
LINE
8
0
10
11.0996
20
4.9419
11
11.0820
21
5.0115
0
LINE
8
0
10
11.0820
20
5.0115
11
11.0640
21
5.0811
0
LINE
8
0
10
11.0640
20
5.0811
11
11.0456
21
5.1507
0
LINE
8
0
10
11.0456
20
5.1507
11
11.0268
21
5.2202
0
LINE
8
0
10
11.0268
20
5.2202
11
11.0075
21
5.2897
0
LINE
8
0
10
11.0075
20
5.2897
11
10.9878
21
5.3591
0
LINE
8
0
10
10.9878
20
5.3591
11
10.9676
21
5.4285
0
LINE
8
0
10
10.9676
20
5.4285
11
10.9470
21
5.4978
0
LINE
8
0
10
10.9470
20
5.4978
11
10.9260
21
5.5671
0
LINE
8
0
10
10.9260
20
5.5671
11
10.9045
21
5.6363
0
LINE
8
0
10
10.9045
20
5.6363
11
10.8826
21
5.7054
0
LINE
8
0
10
10.8826
20
5.7054
11
10.8603
21
5.7745
0
LINE
8
0
10
10.8603
20
5.7745
11
10.8375
21
5.8435
0
LINE
8
0
10
10.8375
20
5.8435
11
10.8143
21
5.9125
0
LINE
8
0
10
10.8143
20
5.9125
11
10.7906
21
5.9813
0
LINE
8
0
10
10.7906
20
5.9813
11
10.7665
21
6.0501
0
LINE
8
0
10
10.7665
20
6.0501
11
10.7420
21
6.1189
0
LINE
8
0
10
10.7420
20
6.1189
11
10.7171
21
6.1875
0
LINE
8
0
10
10.7171
20
6.1875
11
10.6917
21
6.2561
0
LINE
8
0
10
10.6917
20
6.2561
11
10.6658
21
6.3245
0
LINE
8
0
10
10.6658
20
6.3245
11
10.6396
21
6.3929
0
LINE
8
0
10
10.6396
20
6.3929
11
10.6129
21
6.4612
0
LINE
8
0
10
10.6129
20
6.4612
11
10.5858
21
6.5294
0
LINE
8
0
10
10.5858
20
6.5294
11
10.5582
21
6.5975
0
LINE
8
0
10
10.5582
20
6.5975
11
10.5302
21
6.6655
0
LINE
8
0
10
10.5302
20
6.6655
11
10.5018
21
6.7334
0
LINE
8
0
10
10.5018
20
6.7334
11
10.4729
21
6.8012
0
LINE
8
0
10
10.4729
20
6.8012
11
10.4436
21
6.8689
0
LINE
8
0
10
10.4436
20
6.8689
11
10.4139
21
6.9364
0
LINE
8
0
10
10.4139
20
6.9364
11
10.3837
21
7.0039
0
LINE
8
0
10
10.3837
20
7.0039
11
10.3531
21
7.0712
0
LINE
8
0
10
10.3531
20
7.0712
11
10.3221
21
7.1385
0
LINE
8
0
10
10.3221
20
7.1385
11
10.2906
21
7.2056
0
LINE
8
0
10
10.2906
20
7.2056
11
10.2587
21
7.2725
0
LINE
8
0
10
10.2587
20
7.2725
11
10.2264
21
7.3394
0
LINE
8
0
10
10.2264
20
7.3394
11
10.1936
21
7.4061
0
LINE
8
0
10
10.1936
20
7.4061
11
10.1604
21
7.4727
0
LINE
8
0
10
10.1604
20
7.4727
11
10.1268
21
7.5391
0
LINE
8
0
10
10.1268
20
7.5391
11
10.0928
21
7.6054
0
LINE
8
0
10
10.0928
20
7.6054
11
10.0583
21
7.6716
0
LINE
8
0
10
10.0583
20
7.6716
11
10.0234
21
7.7376
0
LINE
8
0
10
10.0234
20
7.7376
11
9.9880
21
7.8035
0
LINE
8
0
10
9.9880
20
7.8035
11
9.9523
21
7.8692
0
LINE
8
0
10
9.9523
20
7.8692
11
9.9161
21
7.9348
0
LINE
8
0
10
9.9161
20
7.9348
11
9.8795
21
8.0002
0
LINE
8
0
10
9.8795
20
8.0002
11
9.8424
21
8.0655
0
LINE
8
0
10
9.8424
20
8.0655
11
9.8050
21
8.1306
0
LINE
8
0
10
9.8050
20
8.1306
11
9.7671
21
8.1955
0
LINE
8
0
10
9.7671
20
8.1955
11
9.7288
21
8.2603
0
LINE
8
0
10
9.7288
20
8.2603
11
9.6900
21
8.3249
0
LINE
8
0
10
9.6900
20
8.3249
11
9.6508
21
8.3894
0
LINE
8
0
10
9.6508
20
8.3894
11
9.6113
21
8.4536
0
LINE
8
0
10
9.6113
20
8.4536
11
9.5713
21
8.5177
0
LINE
8
0
10
9.5713
20
8.5177
11
9.5308
21
8.5816
0
LINE
8
0
10
9.5308
20
8.5816
11
9.4900
21
8.6453
0
LINE
8
0
10
9.4900
20
8.6453
11
9.4487
21
8.7089
0
LINE
8
0
10
9.4487
20
8.7089
11
9.4070
21
8.7722
0
LINE
8
0
10
9.4070
20
8.7722
11
9.3649
21
8.8354
0
LINE
8
0
10
9.3649
20
8.8354
11
9.3224
21
8.8983
0
LINE
8
0
10
9.3224
20
8.8983
11
9.2795
21
8.9611
0
LINE
8
0
10
9.2795
20
8.9611
11
9.2361
21
9.0237
0
LINE
8
0
10
9.2361
20
9.0237
11
9.1924
21
9.0860
0
LINE
8
0
10
9.1924
20
9.0860
11
9.1482
21
9.1482
0
LINE
8
0
10
9.1482
20
9.1482
11
9.1036
21
9.2102
0
LINE
8
0
10
9.1036
20
9.2102
11
9.0586
21
9.2719
0
LINE
8
0
10
9.0586
20
9.2719
11
9.0132
21
9.3334
0
LINE
8
0
10
9.0132
20
9.3334
11
8.9674
21
9.3948
0
LINE
8
0
10
8.9674
20
9.3948
11
8.9211
21
9.4559
0
LINE
8
0
10
8.9211
20
9.4559
11
8.8745
21
9.5167
0
LINE
8
0
10
8.8745
20
9.5167
11
8.8275
21
9.5774
0
LINE
8
0
10
8.8275
20
9.5774
11
8.7800
21
9.6378
0
LINE
8
0
10
8.7800
20
9.6378
11
8.7322
21
9.6980
0
LINE
8
0
10
8.7322
20
9.6980
11
8.6839
21
9.7580
0
LINE
8
0
10
8.6839
20
9.7580
11
8.6352
21
9.8178
0
LINE
8
0
10
8.6352
20
9.8178
11
8.5862
21
9.8773
0
LINE
8
0
10
8.5862
20
9.8773
11
8.5367
21
9.9365
0
LINE
8
0
10
8.5367
20
9.9365
11
8.4868
21
9.9956
0
LINE
8
0
10
8.4868
20
9.9956
11
8.4366
21
10.0543
0
LINE
8
0
10
8.4366
20
10.0543
11
8.3859
21
10.1129
0
LINE
8
0
10
8.3859
20
10.1129
11
8.3349
21
10.1712
0
LINE
8
0
10
8.3349
20
10.1712
11
8.2834
21
10.2292
0
LINE
8
0
10
8.2834
20
10.2292
11
8.2316
21
10.2870
0
LINE
8
0
10
8.2316
20
10.2870
11
8.1794
21
10.3445
0
LINE
8
0
10
8.1794
20
10.3445
11
8.1267
21
10.4017
0
LINE
8
0
10
8.1267
20
10.4017
11
8.0737
21
10.4587
0
LINE
8
0
10
8.0737
20
10.4587
11
8.0203
21
10.5155
0
LINE
8
0
10
8.0203
20
10.5155
11
7.9665
21
10.5719
0
LINE
8
0
10
7.9665
20
10.5719
11
7.9124
21
10.6281
0
LINE
8
0
10
7.9124
20
10.6281
11
7.8578
21
10.6841
0
LINE
8
0
10
7.8578
20
10.6841
11
7.8028
21
10.7397
0
LINE
8
0
10
7.8028
20
10.7397
11
7.7475
21
10.7951
0
LINE
8
0
10
7.7475
20
10.7951
11
7.6918
21
10.8502
0
LINE
8
0
10
7.6918
20
10.8502
11
7.6357
21
10.9050
0
LINE
8
0
10
7.6357
20
10.9050
11
7.5793
21
10.9595
0
LINE
8
0
10
7.5793
20
10.9595
11
7.5224
21
11.0137
0
LINE
8
0
10
7.5224
20
11.0137
11
7.4652
21
11.0677
0
LINE
8
0
10
7.4652
20
11.0677
11
7.4076
21
11.1213
0
LINE
8
0
10
7.4076
20
11.1213
11
7.3497
21
11.1746
0
LINE
8
0
10
7.3497
20
11.1746
11
7.2914
21
11.2277
0
LINE
8
0
10
7.2914
20
11.2277
11
7.2327
21
11.2805
0
LINE
8
0
10
7.2327
20
11.2805
11
7.1736
21
11.3329
0
LINE
8
0
10
7.1736
20
11.3329
11
7.1142
21
11.3850
0
LINE
8
0
10
7.1142
20
11.3850
11
7.0544
21
11.4369
0
LINE
8
0
10
7.0544
20
11.4369
11
6.9942
21
11.4884
0
LINE
8
0
10
6.9942
20
11.4884
11
6.9337
21
11.5396
0
LINE
8
0
10
6.9337
20
11.5396
11
6.8728
21
11.5905
0
LINE
8
0
10
6.8728
20
11.5905
11
6.8116
21
11.6411
0
LINE
8
0
10
6.8116
20
11.6411
11
6.7500
21
11.6913
0
LINE
8
0
10
6.7500
20
11.6913
11
6.2336
21
11.9746
0
LINE
8
0
10
6.2336
20
11.9746
11
5.7053
21
12.2352
0
LINE
8
0
10
5.7053
20
12.2352
11
5.1662
21
12.4724
0
LINE
8
0
10
5.1662
20
12.4724
11
4.6173
21
12.6859
0
LINE
8
0
10
4.6173
20
12.6859
11
4.0595
21
12.8752
0
LINE
8
0
10
4.0595
20
12.8752
11
3.4941
21
13.0400
0
LINE
8
0
10
3.4941
20
13.0400
11
2.9219
21
13.1800
0
LINE
8
0
10
2.9219
20
13.1800
11
2.3443
21
13.2949
0
LINE
8
0
10
2.3443
20
13.2949
11
1.7621
21
13.3845
0
LINE
8
0
10
1.7621
20
13.3845
11
1.1766
21
13.4486
0
LINE
8
0
10
1.1766
20
13.4486
11
0.5889
21
13.4872
0
LINE
8
0
10
0.5889
20
13.4872
11
0.0000
21
13.5000
0
LINE
8
0
10
0.0000
20
13.5000
11
0.6280
21
11.9836
0
LINE
8
0
10
0.6280
20
11.9836
11
0.2269
21
11.9979
0
LINE
8
0
10
0.2269
20
11.9979
11
-0.1745
21
11.9987
0
LINE
8
0
10
-0.1745
20
11.9987
11
-0.5757
21
11.9862
0
LINE
8
0
10
-0.5757
20
11.9862
11
-0.9763
21
11.9602
0
LINE
8
0
10
-0.9763
20
11.9602
11
-1.3758
21
11.9209
0
LINE
8
0
10
-1.3758
20
11.9209
11
-1.7737
21
11.8682
0
LINE
8
0
10
-1.7737
20
11.8682
11
-2.1697
21
11.8022
0
LINE
8
0
10
-2.1697
20
11.8022
11
-2.5632
21
11.7231
0
LINE
8
0
10
-2.5632
20
11.7231
11
-2.9538
21
11.6308
0
LINE
8
0
10
-2.9538
20
11.6308
11
-3.3412
21
11.5255
0
LINE
8
0
10
-3.3412
20
11.5255
11
-3.7248
21
11.4073
0
LINE
8
0
10
-3.7248
20
11.4073
11
-4.1042
21
11.2763
0
LINE
8
0
10
-4.1042
20
11.2763
11
-4.1756
21
11.2679
0
LINE
8
0
10
-4.1756
20
11.2679
11
-4.2469
21
11.2590
0
LINE
8
0
10
-4.2469
20
11.2590
11
-4.3183
21
11.2496
0
LINE
8
0
10
-4.3183
20
11.2496
11
-4.3898
21
11.2399
0
LINE
8
0
10
-4.3898
20
11.2399
11
-4.4612
21
11.2296
0
LINE
8
0
10
-4.4612
20
11.2296
11
-4.5327
21
11.2189
0
LINE
8
0
10
-4.5327
20
11.2189
11
-4.6043
21
11.2078
0
LINE
8
0
10
-4.6043
20
11.2078
11
-4.6758
21
11.1962
0
LINE
8
0
10
-4.6758
20
11.1962
11
-4.7474
21
11.1841
0
LINE
8
0
10
-4.7474
20
11.1841
11
-4.8190
21
11.1716
0
LINE
8
0
10
-4.8190
20
11.1716
11
-4.8906
21
11.1587
0
LINE
8
0
10
-4.8906
20
11.1587
11
-4.9622
21
11.1453
0
LINE
8
0
10
-4.9622
20
11.1453
11
-5.0338
21
11.1314
0
LINE
8
0
10
-5.0338
20
11.1314
11
-5.1054
21
11.1171
0
LINE
8
0
10
-5.1054
20
11.1171
11
-5.1771
21
11.1023
0
LINE
8
0
10
-5.1771
20
11.1023
11
-5.2487
21
11.0870
0
LINE
8
0
10
-5.2487
20
11.0870
11
-5.3203
21
11.0713
0
LINE
8
0
10
-5.3203
20
11.0713
11
-5.3920
21
11.0552
0
LINE
8
0
10
-5.3920
20
11.0552
11
-5.4636
21
11.0385
0
LINE
8
0
10
-5.4636
20
11.0385
11
-5.5352
21
11.0215
0
LINE
8
0
10
-5.5352
20
11.0215
11
-5.6068
21
11.0039
0
LINE
8
0
10
-5.6068
20
11.0039
11
-5.6784
21
10.9859
0
LINE
8
0
10
-5.6784
20
10.9859
11
-5.7499
21
10.9675
0
LINE
8
0
10
-5.7499
20
10.9675
11
-5.8214
21
10.9486
0
LINE
8
0
10
-5.8214
20
10.9486
11
-5.8930
21
10.9292
0
LINE
8
0
10
-5.8930
20
10.9292
11
-5.9644
21
10.9093
0
LINE
8
0
10
-5.9644
20
10.9093
11
-6.0359
21
10.8890
0
LINE
8
0
10
-6.0359
20
10.8890
11
-6.1073
21
10.8682
0
LINE
8
0
10
-6.1073
20
10.8682
11
-6.1787
21
10.8470
0
LINE
8
0
10
-6.1787
20
10.8470
11
-6.2500
21
10.8253
0
LINE
8
0
10
-6.2500
20
10.8253
11
-6.3213
21
10.8032
0
LINE
8
0
10
-6.3213
20
10.8032
11
-6.3925
21
10.7805
0
LINE
8
0
10
-6.3925
20
10.7805
11
-6.4637
21
10.7574
0
LINE
8
0
10
-6.4637
20
10.7574
11
-6.5349
21
10.7339
0
LINE
8
0
10
-6.5349
20
10.7339
11
-6.6060
21
10.7099
0
LINE
8
0
10
-6.6060
20
10.7099
11
-6.6770
21
10.6854
0
LINE
8
0
10
-6.6770
20
10.6854
11
-6.7479
21
10.6605
0
LINE
8
0
10
-6.7479
20
10.6605
11
-6.8188
21
10.6351
0
LINE
8
0
10
-6.8188
20
10.6351
11
-6.8897
21
10.6092
0
LINE
8
0
10
-6.8897
20
10.6092
11
-6.9604
21
10.5828
0
LINE
8
0
10
-6.9604
20
10.5828
11
-7.0311
21
10.5560
0
LINE
8
0
10
-7.0311
20
10.5560
11
-7.1017
21
10.5288
0
LINE
8
0
10
-7.1017
20
10.5288
11
-7.1723
21
10.5010
0
LINE
8
0
10
-7.1723
20
10.5010
11
-7.2427
21
10.4728
0
LINE
8
0
10
-7.2427
20
10.4728
11
-7.3131
21
10.4442
0
LINE
8
0
10
-7.3131
20
10.4442
11
-7.3834
21
10.4151
0
LINE
8
0
10
-7.3834
20
10.4151
11
-7.4536
21
10.3855
0
LINE
8
0
10
-7.4536
20
10.3855
11
-7.5237
21
10.3554
0
LINE
8
0
10
-7.5237
20
10.3554
11
-7.5936
21
10.3249
0
LINE
8
0
10
-7.5936
20
10.3249
11
-7.6635
21
10.2939
0
LINE
8
0
10
-7.6635
20
10.2939
11
-7.7333
21
10.2625
0
LINE
8
0
10
-7.7333
20
10.2625
11
-7.8030
21
10.2306
0
LINE
8
0
10
-7.8030
20
10.2306
11
-7.8726
21
10.1982
0
LINE
8
0
10
-7.8726
20
10.1982
11
-7.9420
21
10.1653
0
LINE
8
0
10
-7.9420
20
10.1653
11
-8.0114
21
10.1320
0
LINE
8
0
10
-8.0114
20
10.1320
11
-8.0806
21
10.0983
0
LINE
8
0
10
-8.0806
20
10.0983
11
-8.1497
21
10.0640
0
LINE
8
0
10
-8.1497
20
10.0640
11
-8.2187
21
10.0293
0
LINE
8
0
10
-8.2187
20
10.0293
11
-8.2875
21
9.9942
0
LINE
8
0
10
-8.2875
20
9.9942
11
-8.3562
21
9.9586
0
LINE
8
0
10
-8.3562
20
9.9586
11
-8.4248
21
9.9225
0
LINE
8
0
10
-8.4248
20
9.9225
11
-8.4933
21
9.8860
0
LINE
8
0
10
-8.4933
20
9.8860
11
-8.5616
21
9.8490
0
LINE
8
0
10
-8.5616
20
9.8490
11
-8.6297
21
9.8115
0
LINE
8
0
10
-8.6297
20
9.8115
11
-8.6977
21
9.7736
0
LINE
8
0
10
-8.6977
20
9.7736
11
-8.7656
21
9.7352
0
LINE
8
0
10
-8.7656
20
9.7352
11
-8.8333
21
9.6964
0
LINE
8
0
10
-8.8333
20
9.6964
11
-8.9009
21
9.6571
0
LINE
8
0
10
-8.9009
20
9.6571
11
-8.9683
21
9.6173
0
LINE
8
0
10
-8.9683
20
9.6173
11
-9.0355
21
9.5771
0
LINE
8
0
10
-9.0355
20
9.5771
11
-9.1026
21
9.5364
0
LINE
8
0
10
-9.1026
20
9.5364
11
-9.1695
21
9.4953
0
LINE
8
0
10
-9.1695
20
9.4953
11
-9.2362
21
9.4537
0
LINE
8
0
10
-9.2362
20
9.4537
11
-9.3028
21
9.4117
0
LINE
8
0
10
-9.3028
20
9.4117
11
-9.3692
21
9.3692
0
LINE
8
0
10
-9.3692
20
9.3692
11
-9.4354
21
9.3262
0
LINE
8
0
10
-9.4354
20
9.3262
11
-9.5014
21
9.2828
0
LINE
8
0
10
-9.5014
20
9.2828
11
-9.5672
21
9.2390
0
LINE
8
0
10
-9.5672
20
9.2390
11
-9.6329
21
9.1946
0
LINE
8
0
10
-9.6329
20
9.1946
11
-9.6983
21
9.1499
0
LINE
8
0
10
-9.6983
20
9.1499
11
-9.7636
21
9.1047
0
LINE
8
0
10
-9.7636
20
9.1047
11
-9.8286
21
9.0590
0
LINE
8
0
10
-9.8286
20
9.0590
11
-9.8935
21
9.0129
0
LINE
8
0
10
-9.8935
20
9.0129
11
-9.9581
21
8.9664
0
LINE
8
0
10
-9.9581
20
8.9664
11
-10.0226
21
8.9193
0
LINE
8
0
10
-10.0226
20
8.9193
11
-10.0868
21
8.8719
0
LINE
8
0
10
-10.0868
20
8.8719
11
-10.1508
21
8.8240
0
LINE
8
0
10
-10.1508
20
8.8240
11
-10.2146
21
8.7757
0
LINE
8
0
10
-10.2146
20
8.7757
11
-10.2782
21
8.7269
0
LINE
8
0
10
-10.2782
20
8.7269
11
-10.3416
21
8.6776
0
LINE
8
0
10
-10.3416
20
8.6776
11
-10.4047
21
8.6280
0
LINE
8
0
10
-10.4047
20
8.6280
11
-10.4676
21
8.5778
0
LINE
8
0
10
-10.4676
20
8.5778
11
-10.5303
21
8.5273
0
LINE
8
0
10
-10.5303
20
8.5273
11
-10.5928
21
8.4763
0
LINE
8
0
10
-10.5928
20
8.4763
11
-10.6550
21
8.4249
0
LINE
8
0
10
-10.6550
20
8.4249
11
-10.7169
21
8.3730
0
LINE
8
0
10
-10.7169
20
8.3730
11
-10.7787
21
8.3207
0
LINE
8
0
10
-10.7787
20
8.3207
11
-10.8401
21
8.2679
0
LINE
8
0
10
-10.8401
20
8.2679
11
-10.9014
21
8.2148
0
LINE
8
0
10
-10.9014
20
8.2148
11
-10.9624
21
8.1612
0
LINE
8
0
10
-10.9624
20
8.1612
11
-11.0231
21
8.1071
0
LINE
8
0
10
-11.0231
20
8.1071
11
-11.0835
21
8.0527
0
LINE
8
0
10
-11.0835
20
8.0527
11
-11.1437
21
7.9978
0
LINE
8
0
10
-11.1437
20
7.9978
11
-11.2037
21
7.9424
0
LINE
8
0
10
-11.2037
20
7.9424
11
-11.2633
21
7.8867
0
LINE
8
0
10
-11.2633
20
7.8867
11
-11.3227
21
7.8305
0
LINE
8
0
10
-11.3227
20
7.8305
11
-11.3819
21
7.7739
0
LINE
8
0
10
-11.3819
20
7.7739
11
-11.4407
21
7.7169
0
LINE
8
0
10
-11.4407
20
7.7169
11
-11.4993
21
7.6594
0
LINE
8
0
10
-11.4993
20
7.6594
11
-11.5576
21
7.6015
0
LINE
8
0
10
-11.5576
20
7.6015
11
-11.6156
21
7.5433
0
LINE
8
0
10
-11.6156
20
7.5433
11
-11.6733
21
7.4845
0
LINE
8
0
10
-11.6733
20
7.4845
11
-11.7307
21
7.4254
0
LINE
8
0
10
-11.7307
20
7.4254
11
-11.7879
21
7.3659
0
LINE
8
0
10
-11.7879
20
7.3659
11
-11.8447
21
7.3059
0
LINE
8
0
10
-11.8447
20
7.3059
11
-11.9012
21
7.2456
0
LINE
8
0
10
-11.9012
20
7.2456
11
-11.9575
21
7.1848
0
LINE
8
0
10
-11.9575
20
7.1848
11
-12.0134
21
7.1236
0
LINE
8
0
10
-12.0134
20
7.1236
11
-12.0690
21
7.0620
0
LINE
8
0
10
-12.0690
20
7.0620
11
-12.1244
21
7.0000
0
LINE
8
0
10
-12.1244
20
7.0000
11
-12.4182
21
6.4645
0
LINE
8
0
10
-12.4182
20
6.4645
11
-12.6883
21
5.9167
0
LINE
8
0
10
-12.6883
20
5.9167
11
-12.9343
21
5.3576
0
LINE
8
0
10
-12.9343
20
5.3576
11
-13.1557
21
4.7883
0
LINE
8
0
10
-13.1557
20
4.7883
11
-13.3520
21
4.2099
0
LINE
8
0
10
-13.3520
20
4.2099
11
-13.5230
21
3.6235
0
LINE
8
0
10
-13.5230
20
3.6235
11
-13.6681
21
3.0302
0
LINE
8
0
10
-13.6681
20
3.0302
11
-13.7873
21
2.4311
0
LINE
8
0
10
-13.7873
20
2.4311
11
-13.8802
21
1.8274
0
LINE
8
0
10
-13.8802
20
1.8274
11
-13.9467
21
1.2202
0
LINE
8
0
10
-13.9467
20
1.2202
11
-13.9867
21
0.6107
0
LINE
8
0
10
-13.9867
20
0.6107
11
-14.0000
21
0.0000
0
LINE
8
0
10
-14.0000
20
0.0000
11
-11.9836
21
0.6280
0
LINE
8
0
10
-11.9836
20
0.6280
11
-11.9979
21
0.2269
0
LINE
8
0
10
-11.9979
20
0.2269
11
-11.9987
21
-0.1745
0
LINE
8
0
10
-11.9987
20
-0.1745
11
-11.9862
21
-0.5757
0
LINE
8
0
10
-11.9862
20
-0.5757
11
-11.9602
21
-0.9763
0
LINE
8
0
10
-11.9602
20
-0.9763
11
-11.9209
21
-1.3758
0
LINE
8
0
10
-11.9209
20
-1.3758
11
-11.8682
21
-1.7737
0
LINE
8
0
10
-11.8682
20
-1.7737
11
-11.8022
21
-2.1697
0
LINE
8
0
10
-11.8022
20
-2.1697
11
-11.7231
21
-2.5632
0
LINE
8
0
10
-11.7231
20
-2.5632
11
-11.6308
21
-2.9538
0
LINE
8
0
10
-11.6308
20
-2.9538
11
-11.5255
21
-3.3412
0
LINE
8
0
10
-11.5255
20
-3.3412
11
-11.4073
21
-3.7248
0
LINE
8
0
10
-11.4073
20
-3.7248
11
-11.2763
21
-4.1042
0
LINE
8
0
10
-11.2763
20
-4.1042
11
-11.2718
21
-4.1770
0
LINE
8
0
10
-11.2718
20
-4.1770
11
-11.2668
21
-4.2499
0
LINE
8
0
10
-11.2668
20
-4.2499
11
-11.2613
21
-4.3228
0
LINE
8
0
10
-11.2613
20
-4.3228
11
-11.2554
21
-4.3958
0
LINE
8
0
10
-11.2554
20
-4.3958
11
-11.2490
21
-4.4689
0
LINE
8
0
10
-11.2490
20
-4.4689
11
-11.2421
21
-4.5421
0
LINE
8
0
10
-11.2421
20
-4.5421
11
-11.2348
21
-4.6153
0
LINE
8
0
10
-11.2348
20
-4.6153
11
-11.2269
21
-4.6887
0
LINE
8
0
10
-11.2269
20
-4.6887
11
-11.2187
21
-4.7620
0
LINE
8
0
10
-11.2187
20
-4.7620
11
-11.2099
21
-4.8355
0
LINE
8
0
10
-11.2099
20
-4.8355
11
-11.2006
21
-4.9090
0
LINE
8
0
10
-11.2006
20
-4.9090
11
-11.1909
21
-4.9825
0
LINE
8
0
10
-11.1909
20
-4.9825
11
-11.1807
21
-5.0561
0
LINE
8
0
10
-11.1807
20
-5.0561
11
-11.1701
21
-5.1298
0
LINE
8
0
10
-11.1701
20
-5.1298
11
-11.1589
21
-5.2035
0
LINE
8
0
10
-11.1589
20
-5.2035
11
-11.1473
21
-5.2772
0
LINE
8
0
10
-11.1473
20
-5.2772
11
-11.1352
21
-5.3510
0
LINE
8
0
10
-11.1352
20
-5.3510
11
-11.1226
21
-5.4248
0
LINE
8
0
10
-11.1226
20
-5.4248
11
-11.1095
21
-5.4987
0
LINE
8
0
10
-11.1095
20
-5.4987
11
-11.0959
21
-5.5726
0
LINE
8
0
10
-11.0959
20
-5.5726
11
-11.0819
21
-5.6465
0
LINE
8
0
10
-11.0819
20
-5.6465
11
-11.0674
21
-5.7204
0
LINE
8
0
10
-11.0674
20
-5.7204
11
-11.0523
21
-5.7944
0
LINE
8
0
10
-11.0523
20
-5.7944
11
-11.0368
21
-5.8684
0
LINE
8
0
10
-11.0368
20
-5.8684
11
-11.0209
21
-5.9424
0
LINE
8
0
10
-11.0209
20
-5.9424
11
-11.0044
21
-6.0164
0
LINE
8
0
10
-11.0044
20
-6.0164
11
-10.9874
21
-6.0904
0
LINE
8
0
10
-10.9874
20
-6.0904
11
-10.9700
21
-6.1644
0
LINE
8
0
10
-10.9700
20
-6.1644
11
-10.9520
21
-6.2385
0
LINE
8
0
10
-10.9520
20
-6.2385
11
-10.9336
21
-6.3125
0
LINE
8
0
10
-10.9336
20
-6.3125
11
-10.9146
21
-6.3865
0
LINE
8
0
10
-10.9146
20
-6.3865
11
-10.8952
21
-6.4605
0
LINE
8
0
10
-10.8952
20
-6.4605
11
-10.8753
21
-6.5345
0
LINE
8
0
10
-10.8753
20
-6.5345
11
-10.8549
21
-6.6085
0
LINE
8
0
10
-10.8549
20
-6.6085
11
-10.8340
21
-6.6825
0
LINE
8
0
10
-10.8340
20
-6.6825
11
-10.8126
21
-6.7565
0
LINE
8
0
10
-10.8126
20
-6.7565
11
-10.7907
21
-6.8304
0
LINE
8
0
10
-10.7907
20
-6.8304
11
-10.7683
21
-6.9043
0
LINE
8
0
10
-10.7683
20
-6.9043
11
-10.7455
21
-6.9782
0
LINE
8
0
10
-10.7455
20
-6.9782
11
-10.7221
21
-7.0520
0
LINE
8
0
10
-10.7221
20
-7.0520
11
-10.6982
21
-7.1258
0
LINE
8
0
10
-10.6982
20
-7.1258
11
-10.6739
21
-7.1996
0
LINE
8
0
10
-10.6739
20
-7.1996
11
-10.6490
21
-7.2733
0
LINE
8
0
10
-10.6490
20
-7.2733
11
-10.6236
21
-7.3470
0
LINE
8
0
10
-10.6236
20
-7.3470
11
-10.5978
21
-7.4206
0
LINE
8
0
10
-10.5978
20
-7.4206
11
-10.5714
21
-7.4942
0
LINE
8
0
10
-10.5714
20
-7.4942
11
-10.5446
21
-7.5677
0
LINE
8
0
10
-10.5446
20
-7.5677
11
-10.5172
21
-7.6412
0
LINE
8
0
10
-10.5172
20
-7.6412
11
-10.4894
21
-7.7146
0
LINE
8
0
10
-10.4894
20
-7.7146
11
-10.4610
21
-7.7879
0
LINE
8
0
10
-10.4610
20
-7.7879
11
-10.4322
21
-7.8612
0
LINE
8
0
10
-10.4322
20
-7.8612
11
-10.4028
21
-7.9344
0
LINE
8
0
10
-10.4028
20
-7.9344
11
-10.3730
21
-8.0075
0
LINE
8
0
10
-10.3730
20
-8.0075
11
-10.3426
21
-8.0806
0
LINE
8
0
10
-10.3426
20
-8.0806
11
-10.3118
21
-8.1535
0
LINE
8
0
10
-10.3118
20
-8.1535
11
-10.2805
21
-8.2264
0
LINE
8
0
10
-10.2805
20
-8.2264
11
-10.2486
21
-8.2992
0
LINE
8
0
10
-10.2486
20
-8.2992
11
-10.2163
21
-8.3719
0
LINE
8
0
10
-10.2163
20
-8.3719
11
-10.1834
21
-8.4444
0
LINE
8
0
10
-10.1834
20
-8.4444
11
-10.1501
21
-8.5169
0
LINE
8
0
10
-10.1501
20
-8.5169
11
-10.1162
21
-8.5893
0
LINE
8
0
10
-10.1162
20
-8.5893
11
-10.0819
21
-8.6616
0
LINE
8
0
10
-10.0819
20
-8.6616
11
-10.0471
21
-8.7338
0
LINE
8
0
10
-10.0471
20
-8.7338
11
-10.0117
21
-8.8058
0
LINE
8
0
10
-10.0117
20
-8.8058
11
-9.9759
21
-8.8778
0
LINE
8
0
10
-9.9759
20
-8.8778
11
-9.9396
21
-8.9496
0
LINE
8
0
10
-9.9396
20
-8.9496
11
-9.9027
21
-9.0213
0
LINE
8
0
10
-9.9027
20
-9.0213
11
-9.8654
21
-9.0929
0
LINE
8
0
10
-9.8654
20
-9.0929
11
-9.8276
21
-9.1644
0
LINE
8
0
10
-9.8276
20
-9.1644
11
-9.7892
21
-9.2357
0
LINE
8
0
10
-9.7892
20
-9.2357
11
-9.7504
21
-9.3068
0
LINE
8
0
10
-9.7504
20
-9.3068
11
-9.7111
21
-9.3779
0
LINE
8
0
10
-9.7111
20
-9.3779
11
-9.6713
21
-9.4488
0
LINE
8
0
10
-9.6713
20
-9.4488
11
-9.6309
21
-9.5195
0
LINE
8
0
10
-9.6309
20
-9.5195
11
-9.5901
21
-9.5901
0
LINE
8
0
10
-9.5901
20
-9.5901
11
-9.5488
21
-9.6606
0
LINE
8
0
10
-9.5488
20
-9.6606
11
-9.5070
21
-9.7309
0
LINE
8
0
10
-9.5070
20
-9.7309
11
-9.4647
21
-9.8010
0
LINE
8
0
10
-9.4647
20
-9.8010
11
-9.4219
21
-9.8710
0
LINE
8
0
10
-9.4219
20
-9.8710
11
-9.3786
21
-9.9408
0
LINE
8
0
10
-9.3786
20
-9.9408
11
-9.3349
21
-10.0104
0
LINE
8
0
10
-9.3349
20
-10.0104
11
-9.2906
21
-10.0799
0
LINE
8
0
10
-9.2906
20
-10.0799
11
-9.2458
21
-10.1491
0
LINE
8
0
10
-9.2458
20
-10.1491
11
-9.2005
21
-10.2182
0
LINE
8
0
10
-9.2005
20
-10.2182
11
-9.1548
21
-10.2872
0
LINE
8
0
10
-9.1548
20
-10.2872
11
-9.1085
21
-10.3559
0
LINE
8
0
10
-9.1085
20
-10.3559
11
-9.0618
21
-10.4244
0
LINE
8
0
10
-9.0618
20
-10.4244
11
-9.0146
21
-10.4928
0
LINE
8
0
10
-9.0146
20
-10.4928
11
-8.9669
21
-10.5609
0
LINE
8
0
10
-8.9669
20
-10.5609
11
-8.9187
21
-10.6289
0
LINE
8
0
10
-8.9187
20
-10.6289
11
-8.8700
21
-10.6966
0
LINE
8
0
10
-8.8700
20
-10.6966
11
-8.8208
21
-10.7641
0
LINE
8
0
10
-8.8208
20
-10.7641
11
-8.7712
21
-10.8315
0
LINE
8
0
10
-8.7712
20
-10.8315
11
-8.7210
21
-10.8986
0
LINE
8
0
10
-8.7210
20
-10.8986
11
-8.6704
21
-10.9655
0
LINE
8
0
10
-8.6704
20
-10.9655
11
-8.6193
21
-11.0322
0
LINE
8
0
10
-8.6193
20
-11.0322
11
-8.5677
21
-11.0986
0
LINE
8
0
10
-8.5677
20
-11.0986
11
-8.5156
21
-11.1648
0
LINE
8
0
10
-8.5156
20
-11.1648
11
-8.4630
21
-11.2308
0
LINE
8
0
10
-8.4630
20
-11.2308
11
-8.4100
21
-11.2966
0
LINE
8
0
10
-8.4100
20
-11.2966
11
-8.3565
21
-11.3621
0
LINE
8
0
10
-8.3565
20
-11.3621
11
-8.3025
21
-11.4274
0
LINE
8
0
10
-8.3025
20
-11.4274
11
-8.2480
21
-11.4924
0
LINE
8
0
10
-8.2480
20
-11.4924
11
-8.1930
21
-11.5572
0
LINE
8
0
10
-8.1930
20
-11.5572
11
-8.1376
21
-11.6217
0
LINE
8
0
10
-8.1376
20
-11.6217
11
-8.0817
21
-11.6860
0
LINE
8
0
10
-8.0817
20
-11.6860
11
-8.0253
21
-11.7500
0
LINE
8
0
10
-8.0253
20
-11.7500
11
-7.9685
21
-11.8138
0
LINE
8
0
10
-7.9685
20
-11.8138
11
-7.9112
21
-11.8773
0
LINE
8
0
10
-7.9112
20
-11.8773
11
-7.8534
21
-11.9405
0
LINE
8
0
10
-7.8534
20
-11.9405
11
-7.7951
21
-12.0035
0
LINE
8
0
10
-7.7951
20
-12.0035
11
-7.7364
21
-12.0662
0
LINE
8
0
10
-7.7364
20
-12.0662
11
-7.6772
21
-12.1286
0
LINE
8
0
10
-7.6772
20
-12.1286
11
-7.6176
21
-12.1907
0
LINE
8
0
10
-7.6176
20
-12.1907
11
-7.5575
21
-12.2525
0
LINE
8
0
10
-7.5575
20
-12.2525
11
-7.4969
21
-12.3141
0
LINE
8
0
10
-7.4969
20
-12.3141
11
-7.4359
21
-12.3754
0
LINE
8
0
10
-7.4359
20
-12.3754
11
-7.3744
21
-12.4363
0
LINE
8
0
10
-7.3744
20
-12.4363
11
-7.3124
21
-12.4970
0
LINE
8
0
10
-7.3124
20
-12.4970
11
-7.2500
21
-12.5574
0
LINE
8
0
10
-7.2500
20
-12.5574
11
-6.6954
21
-12.8617
0
LINE
8
0
10
-6.6954
20
-12.8617
11
-6.1280
21
-13.1415
0
LINE
8
0
10
-6.1280
20
-13.1415
11
-5.5489
21
-13.3963
0
LINE
8
0
10
-5.5489
20
-13.3963
11
-4.9593
21
-13.6255
0
LINE
8
0
10
-4.9593
20
-13.6255
11
-4.3602
21
-13.8289
0
LINE
8
0
10
-4.3602
20
-13.8289
11
-3.7529
21
-14.0059
0
LINE
8
0
10
-3.7529
20
-14.0059
11
-3.1384
21
-14.1563
0
LINE
8
0
10
-3.1384
20
-14.1563
11
-2.5179
21
-14.2797
0
LINE
8
0
10
-2.5179
20
-14.2797
11
-1.8926
21
-14.3760
0
LINE
8
0
10
-1.8926
20
-14.3760
11
-1.2638
21
-14.4448
0
LINE
8
0
10
-1.2638
20
-14.4448
11
-0.6325
21
-14.4862
0
LINE
8
0
10
-0.6325
20
-14.4862
11
-0.0000
21
-14.5000
0
LINE
8
0
10
-0.0000
20
-14.5000
11
-0.6280
21
-11.9836
0
LINE
8
0
10
-0.6280
20
-11.9836
11
-0.2269
21
-11.9979
0
LINE
8
0
10
-0.2269
20
-11.9979
11
0.1745
21
-11.9987
0
LINE
8
0
10
0.1745
20
-11.9987
11
0.5757
21
-11.9862
0
LINE
8
0
10
0.5757
20
-11.9862
11
0.9763
21
-11.9602
0
LINE
8
0
10
0.9763
20
-11.9602
11
1.3758
21
-11.9209
0
LINE
8
0
10
1.3758
20
-11.9209
11
1.7737
21
-11.8682
0
LINE
8
0
10
1.7737
20
-11.8682
11
2.1697
21
-11.8022
0
LINE
8
0
10
2.1697
20
-11.8022
11
2.5632
21
-11.7231
0
LINE
8
0
10
2.5632
20
-11.7231
11
2.9538
21
-11.6308
0
LINE
8
0
10
2.9538
20
-11.6308
11
3.3412
21
-11.5255
0
LINE
8
0
10
3.3412
20
-11.5255
11
3.7248
21
-11.4073
0
LINE
8
0
10
3.7248
20
-11.4073
11
4.1042
21
-11.2763
0
LINE
8
0
10
4.1042
20
-11.2763
11
4.1785
21
-11.2757
0
LINE
8
0
10
4.1785
20
-11.2757
11
4.2528
21
-11.2746
0
LINE
8
0
10
4.2528
20
-11.2746
11
4.3273
21
-11.2730
0
LINE
8
0
10
4.3273
20
-11.2730
11
4.4019
21
-11.2709
0
LINE
8
0
10
4.4019
20
-11.2709
11
4.4766
21
-11.2683
0
LINE
8
0
10
4.4766
20
-11.2683
11
4.5515
21
-11.2653
0
LINE
8
0
10
4.5515
20
-11.2653
11
4.6264
21
-11.2617
0
LINE
8
0
10
4.6264
20
-11.2617
11
4.7015
21
-11.2577
0
LINE
8
0
10
4.7015
20
-11.2577
11
4.7767
21
-11.2532
0
LINE
8
0
10
4.7767
20
-11.2532
11
4.8520
21
-11.2481
0
LINE
8
0
10
4.8520
20
-11.2481
11
4.9274
21
-11.2426
0
LINE
8
0
10
4.9274
20
-11.2426
11
5.0029
21
-11.2366
0
LINE
8
0
10
5.0029
20
-11.2366
11
5.0784
21
-11.2301
0
LINE
8
0
10
5.0784
20
-11.2301
11
5.1541
21
-11.2231
0
LINE
8
0
10
5.1541
20
-11.2231
11
5.2299
21
-11.2156
0
LINE
8
0
10
5.2299
20
-11.2156
11
5.3058
21
-11.2075
0
LINE
8
0
10
5.3058
20
-11.2075
11
5.3817
21
-11.1990
0
LINE
8
0
10
5.3817
20
-11.1990
11
5.4577
21
-11.1900
0
LINE
8
0
10
5.4577
20
-11.1900
11
5.5338
21
-11.1805
0
LINE
8
0
10
5.5338
20
-11.1805
11
5.6100
21
-11.1704
0
LINE
8
0
10
5.6100
20
-11.1704
11
5.6862
21
-11.1599
0
LINE
8
0
10
5.6862
20
-11.1599
11
5.7625
21
-11.1488
0
LINE
8
0
10
5.7625
20
-11.1488
11
5.8389
21
-11.1372
0
LINE
8
0
10
5.8389
20
-11.1372
11
5.9153
21
-11.1251
0
LINE
8
0
10
5.9153
20
-11.1251
11
5.9918
21
-11.1125
0
LINE
8
0
10
5.9918
20
-11.1125
11
6.0684
21
-11.0994
0
LINE
8
0
10
6.0684
20
-11.0994
11
6.1450
21
-11.0858
0
LINE
8
0
10
6.1450
20
-11.0858
11
6.2216
21
-11.0717
0
LINE
8
0
10
6.2216
20
-11.0717
11
6.2983
21
-11.0570
0
LINE
8
0
10
6.2983
20
-11.0570
11
6.3750
21
-11.0418
0
LINE
8
0
10
6.3750
20
-11.0418
11
6.4518
21
-11.0261
0
LINE
8
0
10
6.4518
20
-11.0261
11
6.5285
21
-11.0099
0
LINE
8
0
10
6.5285
20
-11.0099
11
6.6054
21
-10.9932
0
LINE
8
0
10
6.6054
20
-10.9932
11
6.6822
21
-10.9759
0
LINE
8
0
10
6.6822
20
-10.9759
11
6.7591
21
-10.9581
0
LINE
8
0
10
6.7591
20
-10.9581
11
6.8360
21
-10.9398
0
LINE
8
0
10
6.8360
20
-10.9398
11
6.9129
21
-10.9210
0
LINE
8
0
10
6.9129
20
-10.9210
11
6.9898
21
-10.9016
0
LINE
8
0
10
6.9898
20
-10.9016
11
7.0667
21
-10.8818
0
LINE
8
0
10
7.0667
20
-10.8818
11
7.1436
21
-10.8613
0
LINE
8
0
10
7.1436
20
-10.8613
11
7.2205
21
-10.8404
0
LINE
8
0
10
7.2205
20
-10.8404
11
7.2975
21
-10.8189
0
LINE
8
0
10
7.2975
20
-10.8189
11
7.3744
21
-10.7969
0
LINE
8
0
10
7.3744
20
-10.7969
11
7.4513
21
-10.7744
0
LINE
8
0
10
7.4513
20
-10.7744
11
7.5282
21
-10.7514
0
LINE
8
0
10
7.5282
20
-10.7514
11
7.6051
21
-10.7278
0
LINE
8
0
10
7.6051
20
-10.7278
11
7.6819
21
-10.7037
0
LINE
8
0
10
7.6819
20
-10.7037
11
7.7588
21
-10.6790
0
LINE
8
0
10
7.7588
20
-10.6790
11
7.8356
21
-10.6538
0
LINE
8
0
10
7.8356
20
-10.6538
11
7.9124
21
-10.6281
0
LINE
8
0
10
7.9124
20
-10.6281
11
7.9891
21
-10.6019
0
LINE
8
0
10
7.9891
20
-10.6019
11
8.0658
21
-10.5751
0
LINE
8
0
10
8.0658
20
-10.5751
11
8.1425
21
-10.5478
0
LINE
8
0
10
8.1425
20
-10.5478
11
8.2191
21
-10.5199
0
LINE
8
0
10
8.2191
20
-10.5199
11
8.2956
21
-10.4916
0
LINE
8
0
10
8.2956
20
-10.4916
11
8.3722
21
-10.4626
0
LINE
8
0
10
8.3722
20
-10.4626
11
8.4486
21
-10.4332
0
LINE
8
0
10
8.4486
20
-10.4332
11
8.5250
21
-10.4032
0
LINE
8
0
10
8.5250
20
-10.4032
11
8.6014
21
-10.3727
0
LINE
8
0
10
8.6014
20
-10.3727
11
8.6776
21
-10.3416
0
LINE
8
0
10
8.6776
20
-10.3416
11
8.7538
21
-10.3100
0
LINE
8
0
10
8.7538
20
-10.3100
11
8.8300
21
-10.2779
0
LINE
8
0
10
8.8300
20
-10.2779
11
8.9060
21
-10.2452
0
LINE
8
0
10
8.9060
20
-10.2452
11
8.9820
21
-10.2120
0
LINE
8
0
10
8.9820
20
-10.2120
11
9.0578
21
-10.1782
0
LINE
8
0
10
9.0578
20
-10.1782
11
9.1336
21
-10.1439
0
LINE
8
0
10
9.1336
20
-10.1439
11
9.2093
21
-10.1091
0
LINE
8
0
10
9.2093
20
-10.1091
11
9.2849
21
-10.0737
0
LINE
8
0
10
9.2849
20
-10.0737
11
9.3604
21
-10.0378
0
LINE
8
0
10
9.3604
20
-10.0378
11
9.4358
21
-10.0014
0
LINE
8
0
10
9.4358
20
-10.0014
11
9.5111
21
-9.9644
0
LINE
8
0
10
9.5111
20
-9.9644
11
9.5863
21
-9.9269
0
LINE
8
0
10
9.5863
20
-9.9269
11
9.6613
21
-9.8888
0
LINE
8
0
10
9.6613
20
-9.8888
11
9.7363
21
-9.8502
0
LINE
8
0
10
9.7363
20
-9.8502
11
9.8111
21
-9.8111
0
LINE
8
0
10
9.8111
20
-9.8111
11
9.8858
21
-9.7714
0
LINE
8
0
10
9.8858
20
-9.7714
11
9.9604
21
-9.7312
0
LINE
8
0
10
9.9604
20
-9.7312
11
10.0348
21
-9.6905
0
LINE
8
0
10
10.0348
20
-9.6905
11
10.1091
21
-9.6492
0
LINE
8
0
10
10.1091
20
-9.6492
11
10.1832
21
-9.6074
0
LINE
8
0
10
10.1832
20
-9.6074
11
10.2572
21
-9.5650
0
LINE
8
0
10
10.2572
20
-9.5650
11
10.3311
21
-9.5221
0
LINE
8
0
10
10.3311
20
-9.5221
11
10.4048
21
-9.4787
0
LINE
8
0
10
10.4048
20
-9.4787
11
10.4783
21
-9.4347
0
LINE
8
0
10
10.4783
20
-9.4347
11
10.5517
21
-9.3902
0
LINE
8
0
10
10.5517
20
-9.3902
11
10.6250
21
-9.3452
0
LINE
8
0
10
10.6250
20
-9.3452
11
10.6980
21
-9.2996
0
LINE
8
0
10
10.6980
20
-9.2996
11
10.7709
21
-9.2535
0
LINE
8
0
10
10.7709
20
-9.2535
11
10.8436
21
-9.2069
0
LINE
8
0
10
10.8436
20
-9.2069
11
10.9161
21
-9.1597
0
LINE
8
0
10
10.9161
20
-9.1597
11
10.9885
21
-9.1120
0
LINE
8
0
10
10.9885
20
-9.1120
11
11.0606
21
-9.0638
0
LINE
8
0
10
11.0606
20
-9.0638
11
11.1326
21
-9.0150
0
LINE
8
0
10
11.1326
20
-9.0150
11
11.2044
21
-8.9657
0
LINE
8
0
10
11.2044
20
-8.9657
11
11.2760
21
-8.9159
0
LINE
8
0
10
11.2760
20
-8.9159
11
11.3474
21
-8.8655
0
LINE
8
0
10
11.3474
20
-8.8655
11
11.4185
21
-8.8146
0
LINE
8
0
10
11.4185
20
-8.8146
11
11.4895
21
-8.7632
0
LINE
8
0
10
11.4895
20
-8.7632
11
11.5602
21
-8.7113
0
LINE
8
0
10
11.5602
20
-8.7113
11
11.6308
21
-8.6588
0
LINE
8
0
10
11.6308
20
-8.6588
11
11.7011
21
-8.6058
0
LINE
8
0
10
11.7011
20
-8.6058
11
11.7712
21
-8.5523
0
LINE
8
0
10
11.7712
20
-8.5523
11
11.8411
21
-8.4982
0
LINE
8
0
10
11.8411
20
-8.4982
11
11.9107
21
-8.4437
0
LINE
8
0
10
11.9107
20
-8.4437
11
11.9801
21
-8.3886
0
LINE
8
0
10
11.9801
20
-8.3886
11
12.0493
21
-8.3329
0
LINE
8
0
10
12.0493
20
-8.3329
11
12.1182
21
-8.2768
0
LINE
8
0
10
12.1182
20
-8.2768
11
12.1869
21
-8.2201
0
LINE
8
0
10
12.1869
20
-8.2201
11
12.2553
21
-8.1630
0
LINE
8
0
10
12.2553
20
-8.1630
11
12.3234
21
-8.1053
0
LINE
8
0
10
12.3234
20
-8.1053
11
12.3914
21
-8.0470
0
LINE
8
0
10
12.3914
20
-8.0470
11
12.4590
21
-7.9883
0
LINE
8
0
10
12.4590
20
-7.9883
11
12.5264
21
-7.9291
0
LINE
8
0
10
12.5264
20
-7.9291
11
12.5935
21
-7.8693
0
LINE
8
0
10
12.5935
20
-7.8693
11
12.6604
21
-7.8090
0
LINE
8
0
10
12.6604
20
-7.8090
11
12.7269
21
-7.7482
0
LINE
8
0
10
12.7269
20
-7.7482
11
12.7932
21
-7.6869
0
LINE
8
0
10
12.7932
20
-7.6869
11
12.8592
21
-7.6251
0
LINE
8
0
10
12.8592
20
-7.6251
11
12.9250
21
-7.5628
0
LINE
8
0
10
12.9250
20
-7.5628
11
12.9904
21
-7.5000
0
LINE
8
0
10
12.9904
20
-7.5000
11
13.3052
21
-6.9262
0
LINE
8
0
10
13.3052
20
-6.9262
11
13.5946
21
-6.3393
0
LINE
8
0
10
13.5946
20
-6.3393
11
13.8582
21
-5.7403
0
LINE
8
0
10
13.8582
20
-5.7403
11
14.0954
21
-5.1303
0
LINE
8
0
10
14.0954
20
-5.1303
11
14.3058
21
-4.5106
0
LINE
8
0
10
14.3058
20
-4.5106
11
14.4889
21
-3.8823
0
LINE
8
0
10
14.4889
20
-3.8823
11
14.6444
21
-3.2466
0
LINE
8
0
10
14.6444
20
-3.2466
11
14.7721
21
-2.6047
0
LINE
8
0
10
14.7721
20
-2.6047
11
14.8717
21
-1.9579
0
LINE
8
0
10
14.8717
20
-1.9579
11
14.9429
21
-1.3073
0
LINE
8
0
10
14.9429
20
-1.3073
11
14.9857
21
-0.6543
0
LINE
8
0
10
14.9857
20
-0.6543
11
15.0000
21
-0.0000
0
LINE
8
0
10
15.0000
20
-0.0000
11
11.9836
21
-0.6280
0
LINE
8
0
10
3.0000
20
-2.6458
11
3.0000
21
2.6458
0
LINE
8
0
10
3.0000
20
2.6458
11
2.7186
21
2.9342
0
LINE
8
0
10
2.7186
20
2.9342
11
2.4096
21
3.1928
0
LINE
8
0
10
2.4096
20
3.1928
11
2.0761
21
3.4190
0
LINE
8
0
10
2.0761
20
3.4190
11
1.7215
21
3.6106
0
LINE
8
0
10
1.7215
20
3.6106
11
1.3495
21
3.7655
0
LINE
8
0
10
1.3495
20
3.7655
11
0.9638
21
3.8821
0
LINE
8
0
10
0.9638
20
3.8821
11
0.5683
21
3.9594
0
LINE
8
0
10
0.5683
20
3.9594
11
0.1671
21
3.9965
0
LINE
8
0
10
0.1671
20
3.9965
11
-0.2359
21
3.9930
0
LINE
8
0
10
-0.2359
20
3.9930
11
-0.6365
21
3.9490
0
LINE
8
0
10
-0.6365
20
3.9490
11
-1.0306
21
3.8650
0
LINE
8
0
10
-1.0306
20
3.8650
11
-1.4142
21
3.7417
0
LINE
8
0
10
-1.4142
20
3.7417
11
-1.7835
21
3.5804
0
LINE
8
0
10
-1.7835
20
3.5804
11
-2.1347
21
3.3828
0
LINE
8
0
10
-2.1347
20
3.3828
11
-2.4642
21
3.1508
0
LINE
8
0
10
-2.4642
20
3.1508
11
-2.7687
21
2.8869
0
LINE
8
0
10
-2.7687
20
2.8869
11
-3.0451
21
2.5937
0
LINE
8
0
10
-3.0451
20
2.5937
11
-3.2907
21
2.2741
0
LINE
8
0
10
-3.2907
20
2.2741
11
-3.5028
21
1.9315
0
LINE
8
0
10
-3.5028
20
1.9315
11
-3.6793
21
1.5692
0
LINE
8
0
10
-3.6793
20
1.5692
11
-3.8185
21
1.1911
0
LINE
8
0
10
-3.8185
20
1.1911
11
-3.9190
21
0.8008
0
LINE
8
0
10
-3.9190
20
0.8008
11
-3.9797
21
0.4025
0
LINE
8
0
10
-3.9797
20
0.4025
11
-4.0000
21
0.0000
0
LINE
8
0
10
-4.0000
20
0.0000
11
-3.9797
21
-0.4025
0
LINE
8
0
10
-3.9797
20
-0.4025
11
-3.9190
21
-0.8008
0
LINE
8
0
10
-3.9190
20
-0.8008
11
-3.8185
21
-1.1911
0
LINE
8
0
10
-3.8185
20
-1.1911
11
-3.6793
21
-1.5692
0
LINE
8
0
10
-3.6793
20
-1.5692
11
-3.5028
21
-1.9315
0
LINE
8
0
10
-3.5028
20
-1.9315
11
-3.2907
21
-2.2741
0
LINE
8
0
10
-3.2907
20
-2.2741
11
-3.0451
21
-2.5937
0
LINE
8
0
10
-3.0451
20
-2.5937
11
-2.7687
21
-2.8869
0
LINE
8
0
10
-2.7687
20
-2.8869
11
-2.4642
21
-3.1508
0
LINE
8
0
10
-2.4642
20
-3.1508
11
-2.1347
21
-3.3828
0
LINE
8
0
10
-2.1347
20
-3.3828
11
-1.7835
21
-3.5804
0
LINE
8
0
10
-1.7835
20
-3.5804
11
-1.4142
21
-3.7417
0
LINE
8
0
10
-1.4142
20
-3.7417
11
-1.0306
21
-3.8650
0
LINE
8
0
10
-1.0306
20
-3.8650
11
-0.6365
21
-3.9490
0
LINE
8
0
10
-0.6365
20
-3.9490
11
-0.2359
21
-3.9930
0
LINE
8
0
10
-0.2359
20
-3.9930
11
0.1671
21
-3.9965
0
LINE
8
0
10
0.1671
20
-3.9965
11
0.5683
21
-3.9594
0
LINE
8
0
10
0.5683
20
-3.9594
11
0.9638
21
-3.8821
0
LINE
8
0
10
0.9638
20
-3.8821
11
1.3495
21
-3.7655
0
LINE
8
0
10
1.3495
20
-3.7655
11
1.7215
21
-3.6106
0
LINE
8
0
10
1.7215
20
-3.6106
11
2.0761
21
-3.4190
0
LINE
8
0
10
2.0761
20
-3.4190
11
2.4096
21
-3.1928
0
LINE
8
0
10
2.4096
20
-3.1928
11
2.7186
21
-2.9342
0
LINE
8
0
10
2.7186
20
-2.9342
11
3.0000
21
-2.6458
0
LINE
8
0
10
3.0000
20
-2.6458
11
3.0000
21
-2.6458
0
ENDSEC
0
EOF
