<?xml version="1.0" encoding="utf-8"?>
<!-- Generator: Adobe Illustrator 28.0.0, SVG Export Plug-In . SVG Version: 6.00 Build 0)  -->
<svg version="1.1" id="레이어_1" xmlns="http://www.w3.org/2000/svg" xmlns:xlink="http://www.w3.org/1999/xlink" x="0px"
	 y="0px" viewBox="0 0 16 16" style="enable-background:new 0 0 16 16;" xml:space="preserve">
<style type="text/css">
	.st0{fill:#FFFFFF;}
</style>
<g>
	<rect class="st0" width="16" height="16"/>
	<path d="M13.6,14.08H9.77L5.5,9.44l1.2-2.75h3.18c0.26,0,0.49-0.09,0.67-0.28c0.18-0.18,0.28-0.41,0.28-0.67
		c0-0.26-0.09-0.49-0.28-0.67c-0.18-0.18-0.41-0.28-0.67-0.28H5.15v9.3H2.4V2.03h7.49c1.02,0,1.89,0.36,2.62,1.08
		c0.72,0.72,1.08,1.6,1.08,2.62c0,1.02-0.36,1.89-1.08,2.62c-0.72,0.72-1.59,1.08-2.61,1.08L9.28,9.43L13.6,14.08z"/>
</g>
</svg>
